<?xml version="1.0" standalone="no"?>
<!DOCTYPE svg PUBLIC "-//W3C//DTD SVG 20010904//EN" "http://www.w3.org/TR/2001/REC-SVG-20010904/DTD/svg10.dtd">
<!-- Created using Krita: http://krita.org -->
<svg xmlns="http://www.w3.org/2000/svg" 
    xmlns:xlink="http://www.w3.org/1999/xlink"
    xmlns:krita="http://krita.org/namespaces/svg/krita"
    xmlns:sodipodi="http://sodipodi.sourceforge.net/DTD/sodipodi-0.dtd"
    width="24pt"
    height="24pt"
    viewBox="0 0 24 24">
<defs/>
<g id="group0" transform="translate(3.03348809129029, 4.60270690332875)" fill="none">
  <path id="shape0" transform="translate(2.00863636714038, 8.88178419700125e-16)" fill="#86bc10" fill-rule="evenodd" d="M0.71908 12.9618C0.818075 12.4527 0.768578 11.9719 0.570588 11.5193C0.273603 10.8405 -0.893123 6.36452 1.33426 3.62802C3.56165 0.891513 6.19209 0.0217714 9.64984 0.000558242C11.955 -0.0135839 13.8996 0.240975 15.4835 0.764234C14.7057 1.79661 14.2814 2.64514 14.2107 3.30982C14.1046 4.30684 12.7045 9.44043 11.4105 10.6072C10.1165 11.7739 9.46679 12.8133 6.88545 13.2164C5.16456 13.4851 3.58993 13.4214 2.16158 13.0255C1.36962 12.8416 0.888786 12.8204 0.71908 12.9618Z"/>
  <path id="shape1" transform="translate(0, 0.806421349677062)" fill="#b9e81c" fill-rule="evenodd" d="M0 14.6798C0.0494975 14.2767 0.187383 14.0611 0.413657 14.0328C0.753069 13.9903 0.890955 14.0328 1.17733 13.7676C1.46371 13.5024 6.72459 6.27935 7.02157 6.18389C7.21397 6.12205 9.01686 3.61286 11.4869 2.08974C13.3386 1.03253 13.2719 1.06556 14.7856 0.424503C15.7948 -0.00286555 16.8517 -0.00162873 16.8327 0.000238623C16.3861 0.0439726 16.1072 0.202309 14.7114 0.721488C13.8101 1.13215 13.1433 1.41781 11.7097 2.39733C9.26511 4.18597 9.7092 3.75775 7.25492 6.40663L1.38946 14.2343L0.837922 14.701C0.6965 14.8141 0.417193 14.8071 0 14.6798Z"/>
 </g>
</svg>
